<svg version="1.1" xmlns="http://www.w3.org/2000/svg" viewBox="0 0 387 420" width="387" height="420" filter="invert(93%) hue-rotate(180deg)">
  <!-- svg-source:excalidraw -->
  
  <defs>
    <style class="style-fonts">
      @font-face {
        font-family: "Virgil";
        src: url("https://file%2B.vscode-resource.vscode-cdn.net/c%3A/Users/nelso/.vscode/extensions/pomdtr.excalidraw-editor-3.7.4/public//dist/excalidraw-assets/Virgil.woff2");
      }
      @font-face {
        font-family: "Cascadia";
        src: url("https://file%2B.vscode-resource.vscode-cdn.net/c%3A/Users/nelso/.vscode/extensions/pomdtr.excalidraw-editor-3.7.4/public//dist/excalidraw-assets/Cascadia.woff2");
      }
      @font-face {
        font-family: "Assistant";
        src: url("https://file%2B.vscode-resource.vscode-cdn.net/c%3A/Users/nelso/.vscode/extensions/pomdtr.excalidraw-editor-3.7.4/public//dist/excalidraw-assets/Assistant-Regular.woff2");
      }
    </style>
    
  </defs>
  <g stroke-linecap="round" transform="translate(37 124.35204067070924) rotate(0 49.72926827846919 57.130833789683265)"><path d="M0 0 C37.62 0, 75.25 0, 99.46 0 M0 0 C25.55 0, 51.09 0, 99.46 0 M99.46 0 C99.46 44.24, 99.46 88.47, 99.46 114.26 M99.46 0 C99.46 27.19, 99.46 54.37, 99.46 114.26 M99.46 114.26 C66.62 114.26, 33.78 114.26, 0 114.26 M99.46 114.26 C70.05 114.26, 40.64 114.26, 0 114.26 M0 114.26 C0 90.83, 0 67.4, 0 0 M0 114.26 C0 81.19, 0 48.13, 0 0" stroke="#1e1e1e" stroke-width="1" fill="none"></path></g><g stroke-linecap="round" transform="translate(136.54846298412554 124.35204067070924) rotate(0 49.72926827846919 57.130833789683265)"><path d="M0 0 C32.84 0, 65.68 0, 99.46 0 M0 0 C20.93 0, 41.87 0, 99.46 0 M99.46 0 C99.46 33.77, 99.46 67.55, 99.46 114.26 M99.46 0 C99.46 37.27, 99.46 74.54, 99.46 114.26 M99.46 114.26 C68.97 114.26, 38.48 114.26, 0 114.26 M99.46 114.26 C71.3 114.26, 43.15 114.26, 0 114.26 M0 114.26 C0 83.42, 0 52.58, 0 0 M0 114.26 C0 76.06, 0 37.85, 0 0" stroke="#1e1e1e" stroke-width="1" fill="none"></path></g><g stroke-linecap="round" transform="translate(236.09692596825118 124.35204067070924) rotate(0 49.72926827846919 57.130833789683265)"><path d="M0 0 C26.04 0, 52.08 0, 99.46 0 M0 0 C20.42 0, 40.85 0, 99.46 0 M99.46 0 C99.46 45.17, 99.46 90.33, 99.46 114.26 M99.46 0 C99.46 39.17, 99.46 78.34, 99.46 114.26 M99.46 114.26 C66.92 114.26, 34.37 114.26, 0 114.26 M99.46 114.26 C60.73 114.26, 22.01 114.26, 0 114.26 M0 114.26 C0 70.35, 0 26.43, 0 0 M0 114.26 C0 73.41, 0 32.57, 0 0" stroke="#1e1e1e" stroke-width="1" fill="none"></path></g><g stroke-linecap="round" transform="translate(37 238.61148805519719) rotate(0 49.72926827846919 57.13083378968324)"><path d="M0 0 C31.93 0, 63.86 0, 99.46 0 M0 0 C25.24 0, 50.49 0, 99.46 0 M99.46 0 C99.46 37.8, 99.46 75.59, 99.46 114.26 M99.46 0 C99.46 25.49, 99.46 50.98, 99.46 114.26 M99.46 114.26 C66.46 114.26, 33.46 114.26, 0 114.26 M99.46 114.26 C78 114.26, 56.54 114.26, 0 114.26 M0 114.26 C0 71.05, 0 27.83, 0 0 M0 114.26 C0 82.1, 0 49.94, 0 0" stroke="#1e1e1e" stroke-width="1" fill="none"></path></g><g stroke-linecap="round" transform="translate(136.54846298412554 238.61148805519719) rotate(0 49.72926827846919 57.13083378968324)"><path d="M0 0 C21.76 0, 43.53 0, 99.46 0 M0 0 C35.74 0, 71.48 0, 99.46 0 M99.46 0 C99.46 43.38, 99.46 86.77, 99.46 114.26 M99.46 0 C99.46 41.45, 99.46 82.91, 99.46 114.26 M99.46 114.26 C78.88 114.26, 58.29 114.26, 0 114.26 M99.46 114.26 C65.51 114.26, 31.56 114.26, 0 114.26 M0 114.26 C0 82.38, 0 50.49, 0 0 M0 114.26 C0 79.5, 0 44.74, 0 0" stroke="#1e1e1e" stroke-width="1" fill="none"></path></g><g stroke-linecap="round" transform="translate(236.09692596825118 238.61148805519719) rotate(0 49.72926827846919 57.13083378968324)"><path d="M0 0 C38.77 0, 77.53 0, 99.46 0 M0 0 C33.29 0, 66.59 0, 99.46 0 M99.46 0 C99.46 32.83, 99.46 65.67, 99.46 114.26 M99.46 0 C99.46 22.9, 99.46 45.8, 99.46 114.26 M99.46 114.26 C63.93 114.26, 28.39 114.26, 0 114.26 M99.46 114.26 C63.6 114.26, 27.75 114.26, 0 114.26 M0 114.26 C0 76.74, 0 39.23, 0 0 M0 114.26 C0 72.02, 0 29.78, 0 0" stroke="#1e1e1e" stroke-width="1" fill="none"></path></g><g stroke-linecap="round" transform="translate(37 10) rotate(0 49.72926827846919 57.13083378968325)"><path d="M0 0 C30.1 0, 60.2 0, 99.46 0 M0 0 C21.42 0, 42.85 0, 99.46 0 M99.46 0 C99.46 26.34, 99.46 52.69, 99.46 114.26 M99.46 0 C99.46 35.34, 99.46 70.69, 99.46 114.26 M99.46 114.26 C60.02 114.26, 20.58 114.26, 0 114.26 M99.46 114.26 C78.12 114.26, 56.78 114.26, 0 114.26 M0 114.26 C0 80.86, 0 47.46, 0 0 M0 114.26 C0 89.51, 0 64.77, 0 0" stroke="#1e1e1e" stroke-width="1" fill="none"></path></g><g stroke-linecap="round" transform="translate(136.54846298412554 10) rotate(0 49.72926827846919 57.13083378968325)"><path d="M0 0 C20.57 0, 41.14 0, 99.46 0 M0 0 C36.84 0, 73.69 0, 99.46 0 M99.46 0 C99.46 38.01, 99.46 76.02, 99.46 114.26 M99.46 0 C99.46 23.86, 99.46 47.72, 99.46 114.26 M99.46 114.26 C75.6 114.26, 51.75 114.26, 0 114.26 M99.46 114.26 C67.45 114.26, 35.43 114.26, 0 114.26 M0 114.26 C0 70.47, 0 26.67, 0 0 M0 114.26 C0 74.97, 0 35.68, 0 0" stroke="#1e1e1e" stroke-width="1" fill="none"></path></g><g stroke-linecap="round" transform="translate(236.09692596825118 10) rotate(0 49.72926827846919 57.13083378968325)"><path d="M0 0 C21.36 0, 42.72 0, 99.46 0 M0 0 C37.24 0, 74.47 0, 99.46 0 M99.46 0 C99.46 42.61, 99.46 85.21, 99.46 114.26 M99.46 0 C99.46 36.3, 99.46 72.61, 99.46 114.26 M99.46 114.26 C72.5 114.26, 45.53 114.26, 0 114.26 M99.46 114.26 C78.42 114.26, 57.39 114.26, 0 114.26 M0 114.26 C0 83.1, 0 51.93, 0 0 M0 114.26 C0 80.07, 0 45.88, 0 0" stroke="#1e1e1e" stroke-width="1" fill="none"></path></g><g stroke-linecap="round"><g transform="translate(37 10) rotate(0 0 200)"><path d="M0 0 C0 66.67, 0 333.33, 0 400 M0 0 C0 66.67, 0 333.33, 0 400" stroke="#1e1e1e" stroke-width="2" fill="none"></path></g><g transform="translate(37 10) rotate(0 0 200)"><path d="M-10.26 371.81 C-7.54 379.28, -4.82 386.76, 0 400 M-10.26 371.81 C-6.23 382.9, -2.19 393.98, 0 400" stroke="#1e1e1e" stroke-width="2" fill="none"></path></g><g transform="translate(37 10) rotate(0 0 200)"><path d="M10.26 371.81 C7.54 379.28, 4.82 386.76, 0 400 M10.26 371.81 C6.23 382.9, 2.19 393.98, 0 400" stroke="#1e1e1e" stroke-width="2" fill="none"></path></g></g><mask></mask><g stroke-linecap="round"><g transform="translate(37 353) rotate(0 170 0)"><path d="M0 0 C56.67 0, 283.33 0, 340 0 M0 0 C56.67 0, 283.33 0, 340 0" stroke="#1e1e1e" stroke-width="1" fill="none"></path></g><g transform="translate(37 353) rotate(0 170 0)"><path d="M311.81 10.26 C322.05 6.53, 332.29 2.81, 340 0 M311.81 10.26 C323.03 6.18, 334.25 2.09, 340 0" stroke="#1e1e1e" stroke-width="1" fill="none"></path></g><g transform="translate(37 353) rotate(0 170 0)"><path d="M311.81 -10.26 C322.05 -6.53, 332.29 -2.81, 340 0 M311.81 -10.26 C323.03 -6.18, 334.25 -2.09, 340 0" stroke="#1e1e1e" stroke-width="1" fill="none"></path></g></g><mask></mask><g stroke-linecap="round"><g transform="translate(76.97175102494043 353.75751725353814) rotate(89.99999999999994 9.757517253528704 0)"><path d="M0 0 C3.25 0, 16.26 0, 19.52 0 M0 0 C3.25 0, 16.26 0, 19.52 0" stroke="#1e1e1e" stroke-width="1" fill="none"></path></g></g><mask></mask><g transform="translate(81.22527047573476 368) rotate(0 5.503997802734375 10)"><text x="0" y="0" font-family="Virgil, Segoe UI Emoji" font-size="16px" fill="#1e1e1e" text-anchor="start" style="white-space: pre;" direction="ltr" dominant-baseline="text-before-edge">0</text></g><g stroke-linecap="round"><g transform="translate(27 67.13083378968327) rotate(0 9.757517253528704 0)"><path d="M0 0 C3.25 0, 16.26 0, 19.52 0 M0 0 C3.25 0, 16.26 0, 19.52 0" stroke="#1e1e1e" stroke-width="1" fill="none"></path></g></g><mask></mask><g transform="translate(10 57.130833789683265) rotate(0 5.503997802734375 10)"><text x="0" y="0" font-family="Virgil, Segoe UI Emoji" font-size="16px" fill="#1e1e1e" text-anchor="start" style="white-space: pre;" direction="ltr" dominant-baseline="text-before-edge">0</text></g><g stroke-linecap="round"><g transform="translate(27 181.4828744603925) rotate(0 9.757517253528704 0)"><path d="M0 0 C3.25 0, 16.26 0, 19.52 0 M0 0 C3.25 0, 16.26 0, 19.52 0" stroke="#1e1e1e" stroke-width="1" fill="none"></path></g></g><mask></mask><g transform="translate(10 171.4828744603925) rotate(0 2.167999267578125 10)"><text x="0" y="0" font-family="Virgil, Segoe UI Emoji" font-size="16px" fill="#1e1e1e" text-anchor="start" style="white-space: pre;" direction="ltr" dominant-baseline="text-before-edge">1</text></g><g stroke-linecap="round"><g transform="translate(27 295.7423218448804) rotate(0 9.757517253528704 0)"><path d="M0 0 C3.25 0, 16.26 0, 19.52 0 M0 0 C3.25 0, 16.26 0, 19.52 0" stroke="#1e1e1e" stroke-width="1" fill="none"></path></g></g><mask></mask><g transform="translate(10 285.7423218448804) rotate(0 5.6959991455078125 10)"><text x="0" y="0" font-family="Virgil, Segoe UI Emoji" font-size="16px" fill="#1e1e1e" text-anchor="start" style="white-space: pre;" direction="ltr" dominant-baseline="text-before-edge">2</text></g><g stroke-linecap="round"><g transform="translate(276.06867699319173 353.75751725353814) rotate(89.99999999999994 9.757517253528704 0)"><path d="M0 0 C3.25 0, 16.26 0, 19.52 0 M0 0 C3.25 0, 16.26 0, 19.52 0" stroke="#1e1e1e" stroke-width="1" fill="none"></path></g></g><mask></mask><g transform="translate(280.37819619984543 368) rotate(0 5.6959991455078125 10)"><text x="0" y="0" font-family="Virgil, Segoe UI Emoji" font-size="16px" fill="#1e1e1e" text-anchor="start" style="white-space: pre;" direction="ltr" dominant-baseline="text-before-edge">2</text></g><g stroke-linecap="round"><g transform="translate(176.52021400906597 353.75751725353814) rotate(89.99999999999994 9.757517253528704 0)"><path d="M0 0 C3.25 0, 16.26 0, 19.52 0 M0 0 C3.25 0, 16.26 0, 19.52 0" stroke="#1e1e1e" stroke-width="1" fill="none"></path></g></g><mask></mask><g transform="translate(184.10973199501655 368) rotate(0 2.167999267578125 10)"><text x="0" y="0" font-family="Virgil, Segoe UI Emoji" font-size="16px" fill="#1e1e1e" text-anchor="start" style="white-space: pre;" direction="ltr" dominant-baseline="text-before-edge">1</text></g></svg>